<?xml version="1.0" standalone="no"?>
<!DOCTYPE svg PUBLIC "-//W3C//DTD SVG 20010904//EN"
 "http://www.w3.org/TR/2001/REC-SVG-20010904/DTD/svg10.dtd">
<svg version="1.0" xmlns="http://www.w3.org/2000/svg"
 width="16.000000pt" height="16.000000pt" viewBox="0 0 16.000000 16.000000"
 preserveAspectRatio="xMidYMid meet">
<metadata>
Created by potrace 1.11, written by Peter Selinger 2001-2013
</metadata>
<g transform="translate(0.000000,16.000000) scale(0.002286,-0.002286)"
fill="#000000" stroke="none">
<path d="M3056 5208 c5 -2267 13 -5148 13 -5170 1 -14 6 -16 24 -9 51 20 284
58 457 75 25 3 119 14 210 25 91 11 190 23 220 26 30 3 69 8 85 10 17 2 53 7
80 10 28 3 84 10 125 15 41 5 98 12 125 15 28 3 66 7 85 10 19 3 58 7 85 10
28 3 84 10 125 15 41 5 100 12 130 15 30 4 66 8 80 10 14 2 50 6 80 10 30 3
89 10 130 15 41 6 102 12 135 15 33 3 71 8 85 10 14 3 45 7 70 10 62 7 140 16
170 20 24 3 71 9 170 20 25 3 140 17 255 31 199 23 245 29 340 39 22 3 60 8
85 11 94 11 107 13 165 19 90 10 108 13 114 24 3 5 6 1196 6 2647 l-1 2639
-124 41 c-69 23 -341 113 -605 199 -264 87 -559 183 -655 215 -536 177 -1285
422 -1830 599 -206 67 -383 127 -392 132 -49 26 -46 132 -42 -1753z"/>
<path d="M296 3513 c1 -1490 2 -2710 3 -2713 1 -7 2581 -7 2582 0 3 16 4 187
1 197 -3 9 -263 12 -1100 12 -603 0 -1129 1 -1167 1 l-70 0 0 2498 0 2497
1160 1 1160 1 3 106 3 107 -1288 0 -1288 0 1 -2707z"/>
</g>
</svg>
