<?xml version="1.0" standalone="no"?>
<!DOCTYPE svg PUBLIC "-//W3C//DTD SVG 20010904//EN"
 "http://www.w3.org/TR/2001/REC-SVG-20010904/DTD/svg10.dtd">
<svg version="1.0" xmlns="http://www.w3.org/2000/svg"
 width="220.000000pt" height="64.000000pt" viewBox="0 0 220.000000 64.000000"
 preserveAspectRatio="xMidYMid meet">
<metadata>
Created by potrace 1.13, written by Peter Selinger 2001-2015
</metadata>
<g transform="translate(0.000000,64.000000) scale(0.100000,-0.100000)"
fill="#000000" stroke="none">
<path d="M0 390 l0 -250 35 0 35 0 0 225 0 225 105 0 c58 0 105 -2 105 -4 0
-3 -31 -22 -70 -43 l-70 -38 0 -242 0 -243 63 36 c34 19 77 42 94 51 27 14 33
23 33 48 0 22 9 40 30 60 25 24 30 36 30 78 0 47 -1 49 -22 42 -13 -5 -48 -9
-78 -9 -52 -1 -55 0 -55 24 0 22 5 25 43 28 38 3 47 9 82 53 22 28 40 47 40
42 0 -4 -18 -29 -41 -55 -36 -42 -45 -48 -80 -48 -32 0 -39 -3 -39 -20 0 -17
7 -20 48 -20 39 0 53 5 73 26 22 23 24 24 36 8 20 -27 16 -107 -5 -135 -22
-28 -66 -194 -58 -215 4 -10 16 -14 33 -12 25 3 29 9 48 88 l20 85 34 0 c34 0
34 0 57 -79 26 -90 36 -106 62 -90 25 16 21 49 -28 232 -23 89 -40 166 -36
169 15 15 41 -17 56 -68 22 -75 45 -74 44 3 -2 77 -19 101 -92 124 -56 18 -59
20 -46 39 34 48 -9 121 -67 113 -20 -3 -29 0 -29 9 0 10 -40 13 -195 13 l-195
0 0 -250z"/>
</g>
</svg>
