<?xml version="1.0" standalone="no"?>
<!DOCTYPE svg PUBLIC "-//W3C//DTD SVG 20010904//EN"
 "http://www.w3.org/TR/2001/REC-SVG-20010904/DTD/svg10.dtd">
<svg version="1.0" xmlns="http://www.w3.org/2000/svg"
 width="64.000000pt" height="64.000000pt" viewBox="0 0 64.000000 64.000000"
 preserveAspectRatio="xMidYMid meet">
<g transform="translate(0.000000,64.000000) scale(0.100000,-0.100000)"
fill="#000000" stroke="none">
<path d="M0 390 l0 -250 35 0 35 0 0 225 0 225 105 0 c58 0 105 -2 105 -4 0
-3 -31 -22 -70 -43 l-70 -38 0 -242 0 -243 63 36 c34 19 81 45 104 57 30 14
43 27 43 42 0 11 9 38 20 60 19 37 30 166 12 139 -22 -34 -119 -47 -142 -19
-21 26 -4 45 39 45 37 0 44 5 81 51 50 64 53 55 3 -11 -35 -47 -40 -50 -81
-50 -36 0 -43 -3 -40 -17 5 -30 76 -29 120 1 l37 25 15 -54 c21 -69 21 -70
-12 -94 -23 -16 -32 -36 -51 -116 -26 -103 -23 -119 20 -113 21 3 26 13 42 82
17 75 46 125 72 126 6 0 21 -40 34 -90 28 -106 42 -130 68 -114 26 16 22 47
-27 232 -23 89 -40 166 -36 169 15 15 41 -17 56 -68 22 -75 45 -74 44 3 -2 77
-19 101 -92 124 -56 18 -59 20 -46 39 34 48 -9 121 -67 113 -20 -3 -29 0 -29
9 0 10 -40 13 -195 13 l-195 0 0 -250z"/>
</g>
</svg>
